<svg width="19" height="19" viewBox="0 0 19 19" fill="none" xmlns="http://www.w3.org/2000/svg">
<path d="M9.5 0C10.4041 0 11.1379 0.733793 11.1379 1.63793V7.86207H17.3621C17.7965 7.86207 18.2131 8.03464 18.5203 8.34181C18.8274 8.64898 19 9.06559 19 9.5C19 9.93441 18.8274 10.351 18.5203 10.6582C18.2131 10.9654 17.7965 11.1379 17.3621 11.1379H11.1379V17.3621C11.1379 17.7965 10.9654 18.2131 10.6582 18.5203C10.351 18.8274 9.93441 19 9.5 19C9.06559 19 8.64898 18.8274 8.34181 18.5203C8.03464 18.2131 7.86207 17.7965 7.86207 17.3621V11.1379H1.63793C1.20352 11.1379 0.786911 10.9654 0.479739 10.6582C0.172567 10.351 0 9.93441 0 9.5C0 9.06559 0.172567 8.64898 0.479739 8.34181C0.786911 8.03464 1.20352 7.86207 1.63793 7.86207H7.86207V1.63793C7.86207 0.733793 8.59586 0 9.5 0Z" fill="#352626"/>
</svg>
