<svg width="10" height="10" viewBox="0 0 10 10" fill="none" xmlns="http://www.w3.org/2000/svg">
<path d="M0.228709 0.21934C0.369334 0.0788899 0.559958 0 0.758709 0C0.957459 0 1.14808 0.0788899 1.28871 0.21934L5.00171 3.93134L8.71371 0.21934C8.8551 0.0826536 9.04451 0.00696711 9.24116 0.00858259C9.43781 0.0101981 9.62596 0.0889862 9.76508 0.227977C9.9042 0.366968 9.98317 0.555041 9.98497 0.751689C9.98677 0.948337 9.91126 1.13782 9.77471 1.27934L6.06271 4.99234L9.77471 8.70434C9.9114 8.84573 9.98708 9.03514 9.98547 9.23179C9.98385 9.42844 9.90506 9.61659 9.76607 9.75571C9.62708 9.89483 9.43901 9.9738 9.24236 9.9756C9.04571 9.9774 8.85623 9.90189 8.71471 9.76534L5.00171 6.05334L1.28971 9.76534C1.22056 9.83701 1.13783 9.89418 1.04634 9.93353C0.954857 9.97288 0.856452 9.99361 0.756868 9.99453C0.657285 9.99544 0.558516 9.97651 0.466327 9.93884C0.374137 9.90117 0.290373 9.84552 0.21992 9.77514C0.149468 9.70475 0.0937386 9.62104 0.0559845 9.52888C0.0182304 9.43673 -0.000792781 9.33798 2.53081e-05 9.2384C0.000843397 9.13881 0.0214861 9.04039 0.0607491 8.94887C0.100012 8.85734 0.157109 8.77456 0.228709 8.70534L3.94071 4.99234L0.228709 1.28034C0.159014 1.21069 0.103726 1.12799 0.0660048 1.03696C0.0282837 0.945938 0.00886873 0.848372 0.00886873 0.74984C0.00886873 0.651308 0.0282837 0.553742 0.0660048 0.462717C0.103726 0.371691 0.159014 0.288991 0.228709 0.21934Z" fill="#D3812F"/>
</svg>
