<svg width="50" height="46" viewBox="0 0 50 46" fill="none" xmlns="http://www.w3.org/2000/svg">
<rect width="50" height="45.8057" rx="22.9029" fill="#D3812F"/>
<path fill-rule="evenodd" clip-rule="evenodd" d="M14.681 18.1719C14.4428 18.284 14.2414 18.4615 14.1003 18.6837C13.9593 18.906 13.8843 19.1638 13.8843 19.4271C13.8843 19.6903 13.9593 19.9481 14.1003 20.1704C14.2414 20.3926 14.4428 20.5702 14.681 20.6822L16.6665 21.6194V27.0621C16.6665 28.0923 17.0011 29.2419 17.9772 29.95C19.2073 30.8386 21.4483 31.9216 25.0027 31.9216C28.557 31.9216 30.7924 30.8317 32.0281 29.95C33.0042 29.2447 33.3388 28.1034 33.3388 27.0621V21.6194L34.7272 20.9627V27.0579C34.7272 27.242 34.8004 27.4186 34.9306 27.5488C35.0608 27.679 35.2373 27.7521 35.4215 27.7521C35.6056 27.7521 35.7821 27.679 35.9123 27.5488C36.0425 27.4186 36.1157 27.242 36.1157 27.0579V19.4215C36.1157 19.1586 36.0411 18.901 35.9005 18.6788C35.7599 18.4566 35.5591 18.2789 35.3215 18.1664L27.3796 14.4176C26.6374 14.0666 25.8265 13.8845 25.0054 13.8845C24.1843 13.8845 23.3735 14.0666 22.6312 14.4176L14.6894 18.1664L14.681 18.1719ZM18.0549 27.0579V22.2678L22.6229 24.4338C23.3651 24.7848 24.176 24.9668 24.9971 24.9668C25.8182 24.9668 26.629 24.7848 27.3713 24.4338L31.9393 22.2678V27.0579C31.9393 27.8299 31.6893 28.4602 31.2034 28.8073C30.1982 29.5335 28.246 30.529 24.9971 30.529C21.7482 30.529 19.7905 29.5404 18.7908 28.8073C18.3062 28.4574 18.0549 27.8229 18.0549 27.0579ZM23.2199 15.6727C23.7754 15.4096 24.3824 15.2731 24.9971 15.2731C25.6118 15.2731 26.2188 15.4096 26.7743 15.6727L34.7161 19.4215L26.7743 23.1703C26.2188 23.4334 25.6118 23.5699 24.9971 23.5699C24.3824 23.5699 23.7754 23.4334 23.2199 23.1703L15.2781 19.4215L23.2199 15.6727Z" fill="#352626"/>
</svg>
