<svg width="56" height="56" viewBox="0 0 56 56" fill="none" xmlns="http://www.w3.org/2000/svg">
<g filter="url(#filter0_d_3298_17)">
<rect x="8" y="8" width="40" height="39.92" rx="19" fill="white" shape-rendering="crispEdges"/>
<path d="M28 18C22.5 18 18 22.49 18 28.02C18 33.02 21.66 37.17 26.44 37.92V30.92H23.9V28.02H26.44V25.81C26.44 23.3 27.93 21.92 30.22 21.92C31.31 21.92 32.45 22.11 32.45 22.11V24.58H31.19C29.95 24.58 29.56 25.35 29.56 26.14V28.02H32.34L31.89 30.92H29.56V37.92C31.9164 37.5478 34.0622 36.3455 35.6099 34.5301C37.1576 32.7146 38.0054 30.4056 38 28.02C38 22.49 33.5 18 28 18Z" fill="#D3812F"/>
</g>
<defs>
<filter id="filter0_d_3298_17" x="0" y="0" width="56" height="55.92" filterUnits="userSpaceOnUse" color-interpolation-filters="sRGB">
<feFlood flood-opacity="0" result="BackgroundImageFix"/>
<feColorMatrix in="SourceAlpha" type="matrix" values="0 0 0 0 0 0 0 0 0 0 0 0 0 0 0 0 0 0 127 0" result="hardAlpha"/>
<feOffset/>
<feGaussianBlur stdDeviation="4"/>
<feComposite in2="hardAlpha" operator="out"/>
<feColorMatrix type="matrix" values="0 0 0 0 0 0 0 0 0 0 0 0 0 0 0 0 0 0 0.25 0"/>
<feBlend mode="normal" in2="BackgroundImageFix" result="effect1_dropShadow_3298_17"/>
<feBlend mode="normal" in="SourceGraphic" in2="effect1_dropShadow_3298_17" result="shape"/>
</filter>
</defs>
</svg>
