<svg width="19" height="20" viewBox="0 0 19 20" fill="none" xmlns="http://www.w3.org/2000/svg">
<path d="M0.75 13.4188C1.2 13.4728 1.53333 13.6788 1.75 14.0368C2.076 14.5738 3.287 16.5628 4.663 16.5628H6.75M12.422 13.0498C12.9707 13.7685 13.245 14.4138 13.245 14.9858V18.7508M7.62 13.1418C7.04 13.7778 6.75033 14.3821 6.751 14.9548V18.7508" stroke="#352626" stroke-width="1.5" stroke-linecap="round" stroke-linejoin="round"/>
<path d="M12.422 13.0496C13.624 12.7996 14.715 12.3676 15.562 11.7336C17.01 10.6496 17.75 8.97558 17.75 7.32258C17.75 6.16258 17.31 5.07958 16.546 4.16258C16.121 3.65158 17.365 0.29058 16.26 0.80358C15.155 1.31758 13.535 2.00158 12.686 1.75058C11.777 1.48258 10.786 1.33458 9.75 1.33458C8.85 1.33458 7.984 1.44558 7.176 1.65158C6.002 1.94958 4.88 1.28858 3.75 0.80358C2.62 0.31958 3.237 3.81158 2.901 4.22558C2.171 5.13058 1.75 6.19058 1.75 7.32258C1.75 8.97558 2.645 10.6496 4.093 11.7326C5.058 12.4546 6.267 12.9156 7.62 13.1426" stroke="#352626" stroke-width="1.5" stroke-linecap="round" stroke-linejoin="round"/>
</svg>
