<svg width="54" height="54" viewBox="0 0 54 54" fill="none" xmlns="http://www.w3.org/2000/svg">
<g filter="url(#filter0_d_3298_15)">
<rect x="8" y="8" width="38" height="38" rx="19" fill="white" shape-rendering="crispEdges"/>
<path fill-rule="evenodd" clip-rule="evenodd" d="M33 18C33.7956 18 34.5587 18.3161 35.1213 18.8787C35.6839 19.4413 36 20.2044 36 21V33C36 33.7956 35.6839 34.5587 35.1213 35.1213C34.5587 35.6839 33.7956 36 33 36H21C20.2044 36 19.4413 35.6839 18.8787 35.1213C18.3161 34.5587 18 33.7956 18 33V21C18 20.2044 18.3161 19.4413 18.8787 18.8787C19.4413 18.3161 20.2044 18 21 18H33ZM23 25C22.7348 25 22.4804 25.1054 22.2929 25.2929C22.1054 25.4804 22 25.7348 22 26V31C22 31.2652 22.1054 31.5196 22.2929 31.7071C22.4804 31.8946 22.7348 32 23 32C23.2652 32 23.5196 31.8946 23.7071 31.7071C23.8946 31.5196 24 31.2652 24 31V26C24 25.7348 23.8946 25.4804 23.7071 25.2929C23.5196 25.1054 23.2652 25 23 25ZM26 24C25.7348 24 25.4804 24.1054 25.2929 24.2929C25.1054 24.4804 25 24.7348 25 25V31C25 31.2652 25.1054 31.5196 25.2929 31.7071C25.4804 31.8946 25.7348 32 26 32C26.2652 32 26.5196 31.8946 26.7071 31.7071C26.8946 31.5196 27 31.2652 27 31V27.34C27.305 26.996 27.82 26.592 28.393 26.347C28.726 26.205 29.227 26.147 29.575 26.257C29.6904 26.2863 29.7933 26.3523 29.868 26.445C29.92 26.515 30 26.671 30 27V31C30 31.2652 30.1054 31.5196 30.2929 31.7071C30.4804 31.8946 30.7348 32 31 32C31.2652 32 31.5196 31.8946 31.7071 31.7071C31.8946 31.5196 32 31.2652 32 31V27C32 26.33 31.83 25.734 31.476 25.256C31.1503 24.8226 30.6944 24.5047 30.175 24.349C29.273 24.066 28.274 24.223 27.607 24.509C27.3935 24.6008 27.1854 24.705 26.984 24.821C26.9421 24.5906 26.8206 24.3822 26.6408 24.2322C26.461 24.0821 26.2342 24 26 24ZM23 22C22.7348 22 22.4804 22.1054 22.2929 22.2929C22.1054 22.4804 22 22.7348 22 23C22 23.2652 22.1054 23.5196 22.2929 23.7071C22.4804 23.8946 22.7348 24 23 24C23.2652 24 23.5196 23.8946 23.7071 23.7071C23.8946 23.5196 24 23.2652 24 23C24 22.7348 23.8946 22.4804 23.7071 22.2929C23.5196 22.1054 23.2652 22 23 22Z" fill="#D3812F"/>
</g>
<defs>
<filter id="filter0_d_3298_15" x="0" y="0" width="54" height="54" filterUnits="userSpaceOnUse" color-interpolation-filters="sRGB">
<feFlood flood-opacity="0" result="BackgroundImageFix"/>
<feColorMatrix in="SourceAlpha" type="matrix" values="0 0 0 0 0 0 0 0 0 0 0 0 0 0 0 0 0 0 127 0" result="hardAlpha"/>
<feOffset/>
<feGaussianBlur stdDeviation="4"/>
<feComposite in2="hardAlpha" operator="out"/>
<feColorMatrix type="matrix" values="0 0 0 0 0 0 0 0 0 0 0 0 0 0 0 0 0 0 0.25 0"/>
<feBlend mode="normal" in2="BackgroundImageFix" result="effect1_dropShadow_3298_15"/>
<feBlend mode="normal" in="SourceGraphic" in2="effect1_dropShadow_3298_15" result="shape"/>
</filter>
</defs>
</svg>
