<svg width="37" height="37" viewBox="0 0 37 37" fill="none" xmlns="http://www.w3.org/2000/svg">
<circle cx="18.5" cy="18.5" r="18.5" fill="#D3812F"/>
<path d="M11.616 26.5C11.1553 26.5 10.771 26.346 10.463 26.038C10.155 25.73 10.0007 25.3453 10 24.884V14.116C10 13.6553 10.1543 13.271 10.463 12.963C10.7717 12.655 11.1557 12.5007 11.615 12.5H26.385C26.845 12.5 27.229 12.6543 27.537 12.963C27.845 13.2717 27.9993 13.656 28 14.116V24.885C28 25.345 27.8457 25.7293 27.537 26.038C27.2283 26.3467 26.8443 26.5007 26.385 26.5H11.616ZM19 19.616L11 14.385V24.885C11 25.0643 11.0577 25.2117 11.173 25.327C11.2883 25.4423 11.436 25.5 11.616 25.5H26.385C26.5643 25.5 26.7117 25.4423 26.827 25.327C26.9423 25.2117 27 25.064 27 24.884V14.384L19 19.616ZM19 18.5L26.692 13.5H11.308L19 18.5ZM11 14.385V13.5V24.885C11 25.0643 11.0577 25.2117 11.173 25.327C11.2883 25.4423 11.436 25.5 11.616 25.5H11V14.385Z" fill="#352626"/>
</svg>
