<svg width="58" height="39" viewBox="0 0 58 39" fill="none" xmlns="http://www.w3.org/2000/svg">
<path d="M3.22223 38.6667C2.30927 38.6667 1.54453 38.3573 0.928011 37.7387C0.311493 37.12 0.00215926 36.3552 1.11111e-05 35.4444C-0.00213704 34.5336 0.307197 33.7689 0.928011 33.1502C1.54883 32.5315 2.31357 32.2222 3.22223 32.2222H54.7778C55.6907 32.2222 56.4565 32.5315 57.0752 33.1502C57.6939 33.7689 58.0021 34.5336 58 35.4444C57.9978 36.3552 57.6885 37.1211 57.072 37.7419C56.4555 38.3627 55.6907 38.6709 54.7778 38.6667H3.22223ZM3.22223 22.5555C2.30927 22.5555 1.54453 22.2462 0.928011 21.6275C0.311493 21.0089 0.00215926 20.2441 1.11111e-05 19.3333C-0.00213704 18.4225 0.307197 17.6578 0.928011 17.0391C1.54883 16.4204 2.31357 16.1111 3.22223 16.1111H54.7778C55.6907 16.1111 56.4565 16.4204 57.0752 17.0391C57.6939 17.6578 58.0021 18.4225 58 19.3333C57.9978 20.2441 57.6885 21.01 57.072 21.6308C56.4555 22.2516 55.6907 22.5598 54.7778 22.5555H3.22223ZM3.22223 6.44444C2.30927 6.44444 1.54453 6.13511 0.928011 5.51644C0.311493 4.89778 0.00215926 4.13304 1.11111e-05 3.22222C-0.00213704 2.31141 0.307197 1.54667 0.928011 0.928C1.54883 0.309334 2.31357 0 3.22223 0H54.7778C55.6907 0 56.4565 0.309334 57.0752 0.928C57.6939 1.54667 58.0021 2.31141 58 3.22222C57.9978 4.13304 57.6885 4.89885 57.072 5.51966C56.4555 6.14048 55.6907 6.44874 54.7778 6.44444H3.22223Z" fill="#D3812F"/>
</svg>
