<svg width="46" height="44" viewBox="0 0 46 44" fill="none" xmlns="http://www.w3.org/2000/svg">
<path d="M23 5.75H30.6666C34.7333 5.75 38.6334 7.36547 41.5089 10.241C44.3845 13.1166 46 17.0167 46 21.0833C46 25.15 44.3845 29.0501 41.5089 31.9256C38.6334 34.8012 34.7333 36.4167 30.6666 36.4167V43.125C21.0833 39.2917 7.66663 33.5417 7.66663 21.0833C7.66663 17.0167 9.2821 13.1166 12.1577 10.241C15.0332 7.36547 18.9333 5.75 23 5.75Z" fill="white"/>
<path d="M15.3333 0H23C27.0667 0 30.9667 1.61547 33.8423 4.49103C36.7179 7.36659 38.3333 11.2667 38.3333 15.3333C38.3333 19.4 36.7179 23.3001 33.8423 26.1756C30.9667 29.0512 27.0667 30.6667 23 30.6667V37.375C13.4167 33.5417 0 27.7917 0 15.3333C0 11.2667 1.61547 7.36659 4.49103 4.49103C7.36659 1.61547 11.2667 0 15.3333 0Z" fill="#D3812F"/>
</svg>
