<svg width="37" height="37" viewBox="0 0 37 37" fill="none" xmlns="http://www.w3.org/2000/svg">
<circle cx="18.5" cy="18.5" r="18.5" fill="#D3812F"/>
<path d="M26.5 27.5C26.8978 27.5 27.2794 27.342 27.5607 27.0607C27.842 26.7794 28 26.3978 28 26V22.5C28 22.1022 27.842 21.7206 27.5607 21.4393C27.2794 21.158 26.8978 21 26.5 21C25.33 21 24.18 20.82 23.08 20.45C22.817 20.367 22.5363 20.3576 22.2683 20.4228C22.0004 20.488 21.7554 20.6254 21.56 20.82L20.12 22.26C17.6322 20.9024 15.5876 18.8578 14.23 16.37L15.66 14.94C16.07 14.55 16.22 13.97 16.04 13.41C15.68 12.32 15.5 11.17 15.5 10C15.5 9.60218 15.342 9.22064 15.0607 8.93934C14.7794 8.65804 14.3978 8.5 14 8.5H10.5C10.1022 8.5 9.72064 8.65804 9.43934 8.93934C9.15804 9.22064 9 9.60218 9 10C9 19.65 16.85 27.5 26.5 27.5ZM10.5 9.5H14C14.1326 9.5 14.2598 9.55268 14.3536 9.64645C14.4473 9.74021 14.5 9.86739 14.5 10C14.5 11.28 14.7 12.53 15.09 13.72C15.14 13.86 15.13 14.06 14.97 14.22L13 16.18C14.65 19.41 17.07 21.83 20.31 23.5L22.26 21.53C22.4 21.39 22.59 21.35 22.77 21.4C23.97 21.8 25.22 22 26.5 22C26.6326 22 26.7598 22.0527 26.8536 22.1464C26.9473 22.2402 27 22.3674 27 22.5V26C27 26.1326 26.9473 26.2598 26.8536 26.3536C26.7598 26.4473 26.6326 26.5 26.5 26.5C17.4 26.5 10 19.1 10 10C10 9.86739 10.0527 9.74021 10.1464 9.64645C10.2402 9.55268 10.3674 9.5 10.5 9.5Z" fill="#352626"/>
</svg>
