<svg width="43" height="32" viewBox="0 0 43 32" fill="none" xmlns="http://www.w3.org/2000/svg">
<path d="M18.5749 2.52619C11.217 6.45687 7.53799 11.1906 7.53799 16.7274C7.53799 18.45 7.89748 19.3113 8.61645 19.3113L9.3566 19.1445C9.93851 18.9574 10.4095 18.8638 10.7696 18.8638C12.8779 18.8638 14.638 19.5031 16.0498 20.7818C17.4615 22.0605 18.1681 23.6386 18.1693 25.5161C18.1681 27.3208 17.4049 28.8527 15.8797 30.1116C14.3545 31.3695 12.5153 31.9984 10.3622 31.9984C7.35669 31.9984 4.87705 30.9677 2.92324 28.9062C0.974414 26.8478 1.40321e-06 24.2608 1.40321e-06 21.1452C-0.00124465 17.621 0.82738 14.3967 2.48587 11.4723C4.14811 8.54903 6.68258 5.90589 10.0893 3.54291C13.4985 1.18201 15.6741 0.00103959 16.6161 0C17.2441 0 17.76 0.252619 18.1637 0.757858C18.5674 1.26206 18.7693 1.70128 18.7693 2.07553L18.5693 2.52463L18.5749 2.52619ZM42.7981 2.52619C35.4402 6.45583 31.7619 11.1901 31.7631 16.729C31.7631 18.4516 32.1226 19.3129 32.8416 19.3129L33.5817 19.146C34.1636 18.9589 34.6346 18.8654 34.9947 18.8654C37.0582 18.8654 38.807 19.5047 40.2412 20.7834C41.6779 22.06 42.3957 23.6381 42.3944 25.5177C42.3932 27.3224 41.63 28.8542 40.1048 30.1132C38.5796 31.3711 36.7405 32 34.5873 32C31.5818 32 29.1022 30.9693 27.1484 28.9078C25.1995 26.8494 24.2251 24.2624 24.2251 21.1467C24.2226 17.5851 25.0637 14.3333 26.7484 11.3913C28.4305 8.44819 30.9644 5.8144 34.3499 3.48989C37.7417 1.16434 39.9067 0.00156001 40.845 0.00156001C41.4742 0.00156001 41.9913 0.254179 42.3963 0.759417C42.7988 1.26466 43 1.7044 43 2.07865L42.7981 2.52619Z" fill="#D3812F"/>
</svg>
