<svg width="21" height="20" viewBox="0 0 21 20" fill="none" xmlns="http://www.w3.org/2000/svg">
<path d="M10.3956 16.3567L4.86621 19.6957C4.70373 19.7759 4.55293 19.8084 4.4138 19.7932C4.27569 19.7769 4.14114 19.7292 4.01014 19.65C3.87812 19.5688 3.7786 19.454 3.71158 19.3057C3.64456 19.1575 3.63846 18.9955 3.6933 18.8198L5.16477 12.5592L0.297963 8.33983C0.16087 8.22812 0.0704904 8.09458 0.0268238 7.93921C-0.0168429 7.78384 -0.00719552 7.63507 0.0557657 7.4929C0.118727 7.35073 0.202506 7.23394 0.307103 7.14255C0.412715 7.0542 0.554886 6.99428 0.733615 6.9628L7.15566 6.40225L9.65989 0.473733C9.72895 0.306175 9.82847 0.185329 9.95845 0.111198C10.0884 0.0370658 10.2342 0 10.3956 0C10.5571 0 10.7033 0.0370658 10.8343 0.111198C10.9653 0.185329 11.0643 0.306175 11.1314 0.473733L13.6356 6.40225L20.0561 6.9628C20.2359 6.99327 20.3785 7.05369 20.4841 7.14407C20.5898 7.23343 20.674 7.34971 20.737 7.4929C20.799 7.63507 20.8081 7.78384 20.7644 7.93921C20.7208 8.09458 20.6304 8.22812 20.4933 8.33983L15.6265 12.5592L17.098 18.8198C17.1548 18.9935 17.1492 19.1549 17.0812 19.3042C17.0132 19.4535 16.9131 19.5683 16.7811 19.6485C16.6511 19.7297 16.5166 19.778 16.3775 19.7932C16.2393 19.8084 16.089 19.7759 15.9266 19.6957L10.3956 16.3567Z" fill="#D3812F"/>
</svg>
