<svg width="41" height="41" viewBox="0 0 41 41" fill="none" xmlns="http://www.w3.org/2000/svg">
<path d="M32.0519 20.8426L22.8944 17.733L19.4159 8.88079C19.2099 8.3566 18.844 7.90801 18.3676 7.59554C17.8912 7.28307 17.3273 7.12177 16.7518 7.13338C16.1764 7.145 15.6171 7.32899 15.1496 7.66052C14.682 7.99205 14.3286 8.45516 14.137 8.98738L10.8809 17.9756L1.80606 21.4429C1.26869 21.6483 0.80744 22.0095 0.484537 22.4778C0.161635 22.946 -0.00737559 23.4989 0.000309648 24.0618C0.00799491 24.6246 0.192006 25.1704 0.527515 25.6254C0.863024 26.0804 1.33388 26.4227 1.87656 26.6062L11.0413 29.7261L14.5198 38.5783C14.7258 39.1025 15.0917 39.5511 15.5681 39.8635C16.0444 40.176 16.6084 40.3373 17.1838 40.3257C17.7593 40.3141 18.3185 40.1301 18.7861 39.7986C19.2537 39.467 19.6071 39.0039 19.7987 38.4717L23.0548 29.4835L32.1296 26.0161C32.667 25.8108 33.1282 25.4496 33.4511 24.9813C33.774 24.513 33.9431 23.9602 33.9354 23.3973C33.9277 22.8345 33.7437 22.2887 33.4082 21.8337C33.0727 21.3787 32.6018 21.0364 32.0591 20.8528L32.0519 20.8426ZM21.4323 27.1344C21.2414 27.2074 21.0686 27.32 20.926 27.4643C20.7833 27.6087 20.6742 27.7813 20.606 27.9704L17.1562 37.5277L13.4546 28.1217C13.3814 27.9335 13.2669 27.7636 13.119 27.6238C12.9712 27.4841 12.7936 27.3779 12.5988 27.3128L2.86084 24.0144L12.5034 20.3247C12.6963 20.2517 12.8709 20.1384 13.0148 19.9928C13.1588 19.8472 13.2686 19.6727 13.3366 19.4816L16.7794 9.93136L20.4811 19.3374C20.5544 19.5236 20.6682 19.6918 20.8147 19.8303C20.9612 19.9687 21.1369 20.0743 21.3297 20.1396L31.0748 23.4447L21.4323 27.1344ZM22.3759 5.64406C22.3709 5.27743 22.515 4.9228 22.7765 4.65819C23.038 4.39359 23.3955 4.24069 23.7703 4.23312L26.597 4.17604L26.5593 1.41122C26.5543 1.04458 26.6984 0.689956 26.9599 0.425352C27.2214 0.160749 27.5789 0.00784365 27.9538 0.000275084C28.3286 -0.00729348 28.6901 0.131094 28.9587 0.384995C29.2273 0.638895 29.381 0.98751 29.386 1.35415L29.4237 4.11897L32.2504 4.06189C32.6253 4.05432 32.9868 4.19271 33.2554 4.44661C33.524 4.70051 33.6777 5.04913 33.6827 5.41577C33.6877 5.7824 33.5436 6.13703 33.2821 6.40164C33.0205 6.66624 32.663 6.81914 32.2882 6.82671L29.4615 6.88379L29.4992 9.64861C29.5042 10.0152 29.3601 10.3699 29.0986 10.6345C28.8371 10.8991 28.4796 11.052 28.1048 11.0596C27.7299 11.0671 27.3684 10.9287 27.0998 10.6748C26.8312 10.4209 26.6775 10.0723 26.6725 9.70568L26.6348 6.94086L23.8081 6.99794C23.4332 7.00551 23.0718 6.86712 22.8032 6.61322C22.5346 6.35932 22.3809 6.0107 22.3759 5.64406ZM40.8627 13.5675C40.8677 13.9342 40.7236 14.2888 40.4621 14.5534C40.2005 14.818 39.843 14.9709 39.4682 14.9785L38.0548 15.007L38.0737 16.3894C38.0787 16.7561 37.9346 17.1107 37.6731 17.3753C37.4116 17.6399 37.0541 17.7928 36.6792 17.8004C36.3044 17.8079 35.9429 17.6696 35.6743 17.4157C35.4057 17.1618 35.252 16.8131 35.247 16.4465L35.2281 15.0641L33.8148 15.0926C33.44 15.1002 33.0785 14.9618 32.8099 14.7079C32.5413 14.454 32.3876 14.1054 32.3826 13.7388C32.3776 13.3721 32.5217 13.0175 32.7832 12.7529C33.0447 12.4883 33.4022 12.3354 33.777 12.3278L35.1904 12.2993L35.1715 10.9169C35.1665 10.5502 35.3106 10.1956 35.5721 9.931C35.8336 9.66639 36.1911 9.51349 36.566 9.50592C36.9408 9.49835 37.3023 9.63674 37.5709 9.89064C37.8395 10.1445 37.9932 10.4932 37.9982 10.8598L38.0171 12.2422L39.4304 12.2137C39.8053 12.2061 40.1668 12.3445 40.4354 12.5984C40.704 12.8523 40.8577 13.2009 40.8627 13.5675Z" fill="#D3812F"/>
</svg>
