<svg width="49" height="45" viewBox="0 0 49 45" fill="none" xmlns="http://www.w3.org/2000/svg">
<rect width="49" height="44.9167" rx="22.4583" fill="#D3812F"/>
<path d="M35.3889 16.3342V29.9453H13.6111V16.3342H20.4166V14.9731C20.4166 14.7817 20.4521 14.6044 20.523 14.4414C20.5939 14.2783 20.6896 14.1366 20.8101 14.016C20.9306 13.8955 21.0759 13.7963 21.2461 13.7183C21.4162 13.6403 21.5934 13.6049 21.7778 13.612H27.2222C27.4136 13.612 27.5908 13.6474 27.7539 13.7183C27.9169 13.7892 28.0587 13.8849 28.1792 14.0054C28.2997 14.1259 28.399 14.2713 28.477 14.4414C28.555 14.6115 28.5904 14.7888 28.5833 14.9731V16.3342H35.3889ZM21.7778 16.3342H27.2222V14.9731H21.7778V16.3342ZM14.9722 17.6953V19.6625L21.7778 23.0547V21.7786H27.2222V23.0547L34.0278 19.6625V17.6953H14.9722ZM23.1389 23.1397V24.5009H25.8611V23.1397H23.1389ZM34.0278 28.5842V21.1725L27.2222 24.5859V25.862H21.7778V24.5859L14.9722 21.1725V28.5842H34.0278Z" fill="#352626"/>
</svg>
